<svg version="1.1" id="Layer_1" xmlns="http://www.w3.org/2000/svg" xmlns:xlink="http://www.w3.org/1999/xlink" x="0px" y="0px"
	 width="100%" viewBox="0 0 480 185" enable-background="new 0 0 480 185" xml:space="preserve">
<path fill="#000000" opacity="1.000000" stroke="none" 
	d="
M383.000000,186.000000 
	C255.717087,186.000000 128.434189,186.000000 1.075639,186.000000 
	C1.075639,124.408257 1.075639,62.816399 1.075639,1.112270 
	C161.000000,1.112270 321.000000,1.112270 481.000000,1.112270 
	C481.000000,19.744345 481.000000,38.403515 480.721893,57.829384 
	C476.053741,55.652729 471.814209,52.447243 467.241669,49.821682 
	C458.272919,44.671825 449.118744,39.844906 439.909363,34.559174 
	C428.852448,27.878149 417.927551,21.522301 406.671997,15.016024 
	C401.485199,12.020443 396.345184,9.558919 391.846588,6.230484 
	C386.538361,2.303026 381.913971,3.216766 376.805359,6.815720 
	C371.965363,9.626378 367.420044,12.290076 362.549377,15.092521 
	C358.111755,17.806131 353.999451,20.380997 349.521973,22.977943 
	C345.422241,25.296350 341.687744,27.592680 337.586182,29.940096 
	C333.130310,32.291115 329.041565,34.591042 324.623779,37.031086 
	C320.513855,39.410511 316.732941,41.649822 312.623596,44.030952 
	C309.181152,46.078400 306.067139,47.984028 302.707336,49.945885 
	C302.302032,50.055202 302.142548,50.108295 301.716431,50.124226 
	C301.259186,50.378712 301.068512,50.670361 300.553955,51.100021 
	C297.183441,53.054745 294.136780,54.871456 290.777527,56.873032 
	C290.032440,62.703548 289.599915,68.349205 289.091064,74.458115 
	C289.065399,81.279274 289.116028,87.637192 289.090973,94.456894 
	C289.065918,99.944931 289.116577,104.971169 289.092407,110.460571 
	C289.013458,115.733749 289.104553,120.546318 288.975220,125.352959 
	C288.870239,129.253464 290.559967,131.771545 293.990173,133.543747 
	C298.001343,135.616074 301.840637,138.019669 305.768494,140.254898 
	C316.828644,146.548935 327.895966,152.830353 339.119507,159.430298 
	C340.693726,160.496368 342.127106,161.216736 343.521240,162.006439 
	C356.353302,169.275253 369.178528,176.556076 382.352783,184.007446 
	C382.799866,184.787659 382.899933,185.393829 383.000000,186.000000 
M130.913223,61.328060 
	C134.011246,51.430374 137.109283,41.532688 140.224823,31.579044 
	C130.618225,29.996956 129.042328,30.727596 127.182762,37.656300 
	C125.593819,43.576694 124.133949,49.531738 122.333862,56.580086 
	C120.032532,49.185810 117.886986,42.753967 116.067070,36.231274 
	C115.270386,33.375893 114.833115,30.810102 110.945724,30.948948 
	C107.464325,31.073296 104.211456,30.385319 103.107841,35.406372 
	C101.664337,41.973866 99.289459,48.336643 97.315247,54.787487 
	C94.533188,47.995125 92.665138,41.366718 91.038704,34.679546 
	C90.399506,32.051472 89.308983,30.685793 86.402275,30.954849 
	C84.005775,31.176676 81.572395,31.000139 78.958122,31.000139 
	C79.108841,32.664257 79.017723,33.699512 79.313171,34.609219 
	C82.825775,45.424660 86.577438,56.167053 89.838524,67.056740 
	C90.794769,70.249908 92.166344,71.216766 95.292351,71.066681 
	C98.630188,70.906441 101.828133,71.420036 103.021942,66.936554 
	C104.854485,60.054245 107.123459,53.288143 109.338272,46.044121 
	C111.333580,52.379978 113.570969,58.110874 114.875481,64.046791 
	C115.986992,69.104416 117.728683,71.871651 123.567589,71.151260 
	C126.782066,70.754677 128.868103,70.404984 129.075211,66.676163 
	C129.162552,65.103371 129.989487,63.571644 130.913223,61.328060 
M254.099945,33.419811 
	C252.405914,36.464169 249.339294,39.515911 249.355621,42.551064 
	C249.377396,46.598099 251.795761,50.632240 252.615433,53.016197 
	C252.020981,57.649815 251.593887,61.002293 251.159271,64.353798 
	C251.015518,65.462364 251.261505,67.130737 250.633896,67.587387 
	C245.199051,71.541725 247.185394,80.357941 252.990250,82.555077 
	C262.147827,86.021194 271.046265,86.990257 279.655090,81.083412 
	C284.006012,78.098076 286.606018,72.384232 284.853912,67.347649 
	C283.319885,62.937920 279.422333,61.157440 274.763153,60.958092 
	C272.330475,60.854004 269.916229,60.328468 267.492615,60.001244 
	C265.118988,59.680771 262.744019,59.370396 260.369629,59.055588 
	C260.221649,58.535973 260.073669,58.016357 259.925690,57.496746 
	C271.340698,56.875248 282.435699,55.877876 281.512756,40.258232 
	C282.816345,39.683403 284.399658,38.985229 286.055267,38.255173 
	C285.959839,36.159145 285.872314,34.236740 285.794250,32.522083 
	C280.666840,31.989033 275.806152,32.041771 271.259613,30.872787 
	C265.290833,29.338137 259.980103,30.148384 254.099945,33.419811 
M141.001373,54.230019 
	C141.350845,56.481369 141.560257,58.765430 142.076920,60.977741 
	C143.445587,66.838341 149.697556,72.304680 155.506302,71.856934 
	C159.878265,71.519943 164.150009,69.882469 168.596268,68.792030 
	C170.802292,73.618118 175.154022,70.039055 178.677338,70.825188 
	C178.677338,51.336990 178.677338,32.312431 178.677338,13.370946 
	C174.963531,13.370946 171.581451,13.370946 167.886230,13.370946 
	C167.886230,19.955082 167.886230,26.174450 167.886230,32.839092 
	C161.688538,29.431894 155.922592,28.599451 149.961517,32.425430 
	C142.172440,37.424686 140.952545,45.058640 141.001373,54.230019 
M95.965149,144.825027 
	C95.976807,143.158752 95.869926,141.481689 96.020195,139.828018 
	C96.755188,131.739624 92.287048,127.702644 85.699615,125.034218 
	C82.390228,123.693649 78.791733,122.887947 75.762405,121.098259 
	C73.775620,119.924500 72.573257,117.422958 71.019585,115.516075 
	C73.327522,113.679817 75.535637,111.687241 78.007965,110.108414 
	C78.694847,109.669777 80.208389,110.334511 81.266541,110.708473 
	C83.410469,111.466141 85.560966,112.250961 87.600624,113.246185 
	C90.065849,114.449066 91.992241,114.632385 93.135475,111.565315 
	C94.070274,109.057480 97.119431,106.751877 92.827797,104.229828 
	C85.501266,99.924301 77.899994,98.529793 69.908997,101.653076 
	C62.446499,104.569794 59.595757,109.906364 60.000622,119.014008 
	C60.298290,125.710175 63.546555,129.426804 71.159683,132.095474 
	C74.371201,133.221222 77.788498,134.193756 80.529839,136.081635 
	C82.513100,137.447449 85.183136,140.916214 84.633499,142.192795 
	C83.595947,144.602600 80.708954,146.726410 78.108940,147.776657 
	C76.328598,148.495789 73.640900,147.462616 71.526993,146.728531 
	C69.230370,145.931000 67.160988,143.790726 64.931732,143.698044 
	C63.032417,143.619095 60.539040,145.218094 59.277592,146.832199 
	C58.433601,147.912109 58.543884,151.184586 59.492924,151.996658 
	C69.698845,160.729614 89.469955,161.649216 95.965149,144.825027 
M224.681488,126.210831 
	C218.796295,114.801636 211.315262,112.901253 201.417084,118.880585 
	C196.540894,117.896980 193.078552,117.198570 189.308380,116.438057 
	C189.308380,134.920502 189.308380,152.303024 189.308380,169.639984 
	C193.012543,169.639984 196.399658,169.639984 200.272110,169.639984 
	C200.272110,164.919739 200.272110,160.555756 200.272110,156.022385 
	C212.318192,160.949387 218.543900,156.671738 222.748215,150.303940 
	C227.468033,143.155365 226.738281,135.001312 224.681488,126.210831 
M112.207283,156.857758 
	C112.471436,155.286209 112.943352,153.717316 112.963593,152.142639 
	C113.049072,145.490921 113.096535,138.835632 112.969017,132.185272 
	C112.870827,127.064590 116.715523,125.561302 120.305000,125.342766 
	C122.122383,125.232117 124.529404,128.074829 125.928284,130.095612 
	C126.925644,131.536377 126.926704,133.828964 126.956955,135.747971 
	C127.066284,142.684738 126.999969,149.624237 126.999969,156.707764 
	C130.879639,156.707764 134.261978,156.707764 137.992783,156.707764 
	C137.992783,147.968048 138.496048,139.480423 137.880997,131.074631 
	C136.819809,116.571869 125.254814,113.244011 115.836220,118.015289 
	C115.069221,118.403847 114.179352,118.549850 112.779495,118.984726 
	C112.779495,112.053032 112.779495,105.641739 112.779495,99.389267 
	C108.925064,99.389267 105.543556,99.389267 102.397888,99.389267 
	C102.397888,118.807854 102.397888,137.835312 102.397888,156.978226 
	C105.620277,156.978226 108.444969,156.978226 112.207283,156.857758 
M38.000000,52.416607 
	C37.665955,59.745197 40.187202,65.702324 46.803280,69.279007 
	C54.037266,73.189751 61.188629,72.999908 68.708641,69.186020 
	C77.798912,64.575745 80.028168,50.127731 75.962997,41.024502 
	C71.328064,30.645409 59.327377,27.446356 48.234863,32.014454 
	C39.669712,35.541740 37.678642,43.028481 38.000000,52.416607 
M143.000015,135.638855 
	C143.000015,136.971664 143.010178,138.304581 142.998276,139.637283 
	C142.937668,146.419662 145.622955,151.675476 151.568985,155.141891 
	C158.475983,159.168518 165.784103,159.470963 172.591339,155.725739 
	C181.738968,150.692886 183.704086,143.593842 182.162491,131.497177 
	C180.961639,122.074333 171.524124,115.368599 161.494064,116.020744 
	C149.867691,116.776665 143.184326,123.603065 143.000015,135.638855 
M207.999847,57.491402 
	C207.999847,61.915936 207.999847,66.340469 207.999847,70.605011 
	C212.075928,70.605011 215.462189,70.605011 219.000122,70.605011 
	C219.000122,62.225140 219.095383,54.238049 218.965698,46.254612 
	C218.883041,41.165432 222.617157,39.550865 226.246323,39.343529 
	C228.087677,39.238323 230.506699,42.038883 231.918121,44.049725 
	C232.923553,45.482159 232.926041,47.784630 232.956573,49.705498 
	C233.066956,56.651642 233.000000,63.600605 233.000000,70.711273 
	C236.867264,70.711273 240.252045,70.711273 243.992645,70.711273 
	C243.992645,61.967209 244.354095,53.485531 243.819885,45.060646 
	C243.597137,41.547855 242.194214,37.593693 240.052795,34.827225 
	C235.718658,29.227959 229.220566,28.634914 221.809647,32.012863 
	C220.638504,32.546684 219.214828,33.271881 218.095474,33.032299 
	C214.906693,32.349796 211.814728,31.214825 207.999847,30.048540 
	C207.999847,39.899254 207.999847,48.197060 207.999847,57.491402 
M15.000399,51.461800 
	C15.000399,39.391773 15.000399,27.321751 15.000399,15.383095 
	C10.602067,15.383095 6.887214,15.383095 3.395046,15.383095 
	C3.395046,34.129864 3.395046,52.491314 3.395046,70.756531 
	C14.716925,70.756531 25.642382,70.756531 36.843147,70.756531 
	C36.902531,69.572083 36.977863,68.614723 36.994171,67.656364 
	C37.107327,61.006409 37.103390,61.004307 30.554501,61.000099 
	C25.466576,60.996830 20.378645,60.999447 15.000400,60.999447 
	C15.000400,57.725708 15.000400,55.087410 15.000399,51.461800 
M188.000000,66.351776 
	C188.085968,67.794891 188.171936,69.238007 188.256104,70.650955 
	C191.986771,70.650955 195.372391,70.650955 198.612885,70.650955 
	C198.612885,57.246437 198.612885,44.194340 198.612885,31.263390 
	C194.949265,31.263390 191.674728,31.263390 188.000000,31.263390 
	C188.000000,42.807781 188.000000,54.093433 188.000000,66.351776 
M191.260895,13.928964 
	C187.470642,15.428744 185.375717,19.834396 187.263748,23.368183 
	C188.982849,26.585791 192.108810,27.758703 195.665573,26.664204 
	C199.409088,25.512234 200.582642,22.691021 199.997955,18.964273 
	C199.258499,14.251105 195.830429,13.580978 191.260895,13.928964 
z"/>
<path fill="#000000" opacity="1.000000" stroke="none" 
	d="
M481.000000,130.000000 
	C481.000000,148.612061 481.000000,167.224121 481.000000,186.000000 
	C449.979309,186.000000 418.958313,186.000000 387.170471,185.709122 
	C390.638824,182.628265 394.873962,179.838287 399.470581,177.019043 
	C403.569519,174.697281 407.306976,172.404785 411.407623,170.056702 
	C415.181824,167.945007 418.592804,165.888916 422.357117,163.804764 
	C427.380402,161.062012 432.050415,158.347305 436.989990,155.414429 
	C441.854156,152.501831 446.448761,149.807404 451.406647,147.057770 
	C456.194550,144.372421 460.619202,141.742264 465.373291,138.967224 
	C469.483276,136.585480 473.263824,134.348648 477.375854,131.965546 
	C478.804871,131.212860 479.902435,130.606415 481.000000,130.000000 
z"/>
<path fill="#E5EAF5" opacity="1.000000" stroke="none" 
	d="
M407.002625,15.166452 
	C417.927551,21.522301 428.852448,27.878149 439.933472,34.910355 
	C440.709503,36.540096 441.185913,37.636215 441.970886,38.425430 
	C453.444550,49.961533 464.951141,61.464951 476.483917,72.941963 
	C477.214691,73.669228 478.225403,74.115196 479.939972,75.238472 
	C479.939972,71.072014 479.939972,67.808350 480.312592,64.617958 
	C480.790161,64.460815 480.895081,64.230408 481.000000,64.000000 
	C481.000000,71.020950 481.000000,78.041893 480.636475,85.506683 
	C478.643585,84.928581 476.932190,84.015190 475.403503,82.860039 
	C472.928101,80.989525 470.572662,78.960297 468.091248,76.614822 
	C468.015930,74.956123 468.015930,73.680695 468.015930,72.341949 
	C466.865570,72.639969 465.955597,72.875710 464.897583,72.804794 
	C461.792236,69.985718 458.834900,67.473297 456.027191,64.632156 
	C458.042847,63.389904 459.908844,62.476360 462.206085,61.351700 
	C451.415466,55.067226 441.179962,49.106071 430.926270,42.791901 
	C425.014343,36.201504 419.025818,30.049799 413.272766,23.685253 
	C410.920349,21.082821 409.077362,18.019884 407.002625,15.166452 
z"/>
<path fill="#E9EEF7" opacity="1.000000" stroke="none" 
	d="
M479.939972,64.544693 
	C479.939972,67.808350 479.939972,71.072014 479.939972,75.238472 
	C478.225403,74.115196 477.214691,73.669228 476.483917,72.941963 
	C464.951141,61.464951 453.444550,49.961533 441.970886,38.425430 
	C441.185913,37.636215 440.709503,36.540096 440.065430,35.235527 
	C449.118744,39.844906 458.272919,44.671825 467.241669,49.821682 
	C471.814209,52.447243 476.053741,55.652729 480.721893,58.298042 
	C481.000000,59.066669 481.000000,60.133339 480.563507,61.572083 
	C480.064667,62.811001 480.002319,63.677845 479.939972,64.544693 
z"/>
<path fill="#A3B7DC" opacity="1.000000" stroke="none" 
	d="
M399.109100,177.048309 
	C394.873962,179.838287 390.638824,182.628265 386.701843,185.709122 
	C385.933319,186.000000 384.866669,186.000000 383.399994,186.000000 
	C382.899933,185.393829 382.799866,184.787659 382.343872,183.653564 
	C381.045807,181.637634 380.315613,179.947281 379.123138,178.698273 
	C375.004547,174.384445 370.556976,170.374542 366.586761,165.934097 
	C364.935120,164.086868 364.170685,161.446381 363.350525,159.195740 
	C368.574341,162.192245 373.450348,165.159668 378.783356,168.405197 
	C378.931122,165.168030 379.049194,162.581512 379.521301,160.003693 
	C381.573090,161.164536 383.290009,162.289688 384.963776,163.475723 
	C387.027893,164.938370 389.056122,166.451660 391.073975,167.954529 
	C391.048096,167.965973 391.070099,167.913712 391.086548,168.262634 
	C393.771698,171.423813 396.440399,174.236053 399.109100,177.048309 
z"/>
<path fill="#D6DFEF" opacity="1.000000" stroke="none" 
	d="
M481.000000,129.533875 
	C479.902435,130.606415 478.804871,131.212860 477.228210,131.658722 
	C473.794708,128.985031 470.840363,126.471924 467.940063,123.496567 
	C468.051758,117.688377 468.109406,112.342438 468.505371,107.048279 
	C470.873352,108.689133 472.812378,110.416206 474.959808,111.825851 
	C476.852264,113.068115 478.977539,113.955750 481.000000,115.000000 
	C481.000000,119.689255 481.000000,124.378510 481.000000,129.533875 
z"/>
<path fill="#DCE3F1" opacity="1.000000" stroke="none" 
	d="
M481.000000,114.532394 
	C478.977539,113.955750 476.852264,113.068115 474.959808,111.825851 
	C472.812378,110.416206 470.873352,108.689133 468.431030,106.586075 
	C468.067810,100.713661 468.117279,95.355232 468.499390,90.046341 
	C470.230469,91.239708 471.530914,92.539680 473.049255,93.492477 
	C475.627197,95.110207 478.342438,96.509125 481.000000,98.000008 
	C481.000000,103.354927 481.000000,108.709862 481.000000,114.532394 
z"/>
<path fill="#E2E8F4" opacity="1.000000" stroke="none" 
	d="
M481.000000,97.539368 
	C478.342438,96.509125 475.627197,95.110207 473.049255,93.492477 
	C471.530914,92.539680 470.230469,91.239708 468.424683,89.588486 
	C468.067078,85.053421 468.116821,81.025757 468.166565,76.998085 
	C470.572662,78.960297 472.928101,80.989525 475.403503,82.860039 
	C476.932190,84.015190 478.643585,84.928581 480.636475,85.975258 
	C481.000000,89.692909 481.000000,93.385818 481.000000,97.539368 
z"/>
<path fill="#000000" opacity="1.000000" stroke="none" 
	d="
M480.312592,64.617958 
	C480.002319,63.677845 480.064667,62.811001 480.563507,61.972076 
	C481.000000,62.444447 481.000000,62.888889 481.000000,63.666668 
	C480.895081,64.230408 480.790161,64.460815 480.312592,64.617958 
z"/>
<path fill="#6A89C6" opacity="1.000000" stroke="none" 
	d="
M130.696716,61.674656 
	C129.989487,63.571644 129.162552,65.103371 129.075211,66.676163 
	C128.868103,70.404984 126.782066,70.754677 123.567589,71.151260 
	C117.728683,71.871651 115.986992,69.104416 114.875481,64.046791 
	C113.570969,58.110874 111.333580,52.379978 109.338272,46.044121 
	C107.123459,53.288143 104.854485,60.054245 103.021942,66.936554 
	C101.828133,71.420036 98.630188,70.906441 95.292351,71.066681 
	C92.166344,71.216766 90.794769,70.249908 89.838524,67.056740 
	C86.577438,56.167053 82.825775,45.424660 79.313171,34.609219 
	C79.017723,33.699512 79.108841,32.664257 78.958122,31.000139 
	C81.572395,31.000139 84.005775,31.176676 86.402275,30.954849 
	C89.308983,30.685793 90.399506,32.051472 91.038704,34.679546 
	C92.665138,41.366718 94.533188,47.995125 97.315247,54.787487 
	C99.289459,48.336643 101.664337,41.973866 103.107841,35.406372 
	C104.211456,30.385319 107.464325,31.073296 110.945724,30.948948 
	C114.833115,30.810102 115.270386,33.375893 116.067070,36.231274 
	C117.886986,42.753967 120.032532,49.185810 122.333862,56.580086 
	C124.133949,49.531738 125.593819,43.576694 127.182762,37.656300 
	C129.042328,30.727596 130.618225,29.996956 140.224823,31.579044 
	C137.109283,41.532688 134.011246,51.430374 130.696716,61.674656 
z"/>
<path fill="#6A89C6" opacity="1.000000" stroke="none" 
	d="
M254.435516,33.234726 
	C259.980103,30.148384 265.290833,29.338137 271.259613,30.872787 
	C275.806152,32.041771 280.666840,31.989033 285.794250,32.522083 
	C285.872314,34.236740 285.959839,36.159145 286.055267,38.255173 
	C284.399658,38.985229 282.816345,39.683403 281.512756,40.258232 
	C282.435699,55.877876 271.340698,56.875248 259.925690,57.496746 
	C260.073669,58.016357 260.221649,58.535973 260.369629,59.055588 
	C262.744019,59.370396 265.118988,59.680771 267.492615,60.001244 
	C269.916229,60.328468 272.330475,60.854004 274.763153,60.958092 
	C279.422333,61.157440 283.319885,62.937920 284.853912,67.347649 
	C286.606018,72.384232 284.006012,78.098076 279.655090,81.083412 
	C271.046265,86.990257 262.147827,86.021194 252.990250,82.555077 
	C247.185394,80.357941 245.199051,71.541725 250.633896,67.587387 
	C251.261505,67.130737 251.015518,65.462364 251.159271,64.353798 
	C251.593887,61.002293 252.020981,57.649815 252.615433,53.016197 
	C251.795761,50.632240 249.377396,46.598099 249.355621,42.551064 
	C249.339294,39.515911 252.405914,36.464169 254.435516,33.234726 
M262.844849,69.000481 
	C260.742798,70.110672 258.640747,71.220871 256.289429,72.462723 
	C262.117249,78.553505 270.515259,78.409309 275.053436,72.811607 
	C272.220856,68.716942 267.662903,69.683685 262.844849,69.000481 
M269.878204,47.646721 
	C271.654602,45.198372 272.579285,42.262348 269.735077,40.499310 
	C267.769287,39.280788 264.543457,38.878811 262.399048,39.617214 
	C261.096222,40.065819 260.084351,43.409637 260.171295,45.399120 
	C260.331543,49.066723 263.461945,49.871540 269.878204,47.646721 
z"/>
<path fill="#6A89C6" opacity="1.000000" stroke="none" 
	d="
M141.000763,53.776268 
	C140.952545,45.058640 142.172440,37.424686 149.961517,32.425430 
	C155.922592,28.599451 161.688538,29.431894 167.886230,32.839092 
	C167.886230,26.174450 167.886230,19.955082 167.886230,13.370946 
	C171.581451,13.370946 174.963531,13.370946 178.677338,13.370946 
	C178.677338,32.312431 178.677338,51.336990 178.677338,70.825188 
	C175.154022,70.039055 170.802292,73.618118 168.596268,68.792030 
	C164.150009,69.882469 159.878265,71.519943 155.506302,71.856934 
	C149.697556,72.304680 143.445587,66.838341 142.076920,60.977741 
	C141.560257,58.765430 141.350845,56.481369 141.000763,53.776268 
M153.849609,58.405083 
	C155.217209,61.584492 157.435684,63.969006 161.054962,62.837059 
	C164.822052,61.658882 168.423599,59.829487 168.040115,54.694839 
	C167.817795,51.718044 167.749390,48.684551 168.062637,45.724289 
	C168.463333,41.937622 166.314301,40.005409 163.310852,39.271748 
	C160.095032,38.486214 156.913101,38.688202 154.862549,42.355904 
	C152.061127,47.366646 151.513748,52.420971 153.849609,58.405083 
z"/>
<path fill="#6A89C6" opacity="1.000000" stroke="none" 
	d="
M95.872162,145.238007 
	C89.469955,161.649216 69.698845,160.729614 59.492924,151.996658 
	C58.543884,151.184586 58.433601,147.912109 59.277592,146.832199 
	C60.539040,145.218094 63.032417,143.619095 64.931732,143.698044 
	C67.160988,143.790726 69.230370,145.931000 71.526993,146.728531 
	C73.640900,147.462616 76.328598,148.495789 78.108940,147.776657 
	C80.708954,146.726410 83.595947,144.602600 84.633499,142.192795 
	C85.183136,140.916214 82.513100,137.447449 80.529839,136.081635 
	C77.788498,134.193756 74.371201,133.221222 71.159683,132.095474 
	C63.546555,129.426804 60.298290,125.710175 60.000622,119.014008 
	C59.595757,109.906364 62.446499,104.569794 69.908997,101.653076 
	C77.899994,98.529793 85.501266,99.924301 92.827797,104.229828 
	C97.119431,106.751877 94.070274,109.057480 93.135475,111.565315 
	C91.992241,114.632385 90.065849,114.449066 87.600624,113.246185 
	C85.560966,112.250961 83.410469,111.466141 81.266541,110.708473 
	C80.208389,110.334511 78.694847,109.669777 78.007965,110.108414 
	C75.535637,111.687241 73.327522,113.679817 71.019585,115.516075 
	C72.573257,117.422958 73.775620,119.924500 75.762405,121.098259 
	C78.791733,122.887947 82.390228,123.693649 85.699615,125.034218 
	C92.287048,127.702644 96.755188,131.739624 96.020195,139.828018 
	C95.869926,141.481689 95.976807,143.158752 95.872162,145.238007 
z"/>
<path fill="#6A89C6" opacity="1.000000" stroke="none" 
	d="
M224.819275,126.594894 
	C226.738281,135.001312 227.468033,143.155365 222.748215,150.303940 
	C218.543900,156.671738 212.318192,160.949387 200.272110,156.022385 
	C200.272110,160.555756 200.272110,164.919739 200.272110,169.639984 
	C196.399658,169.639984 193.012543,169.639984 189.308380,169.639984 
	C189.308380,152.303024 189.308380,134.920502 189.308380,116.438057 
	C193.078552,117.198570 196.540894,117.896980 201.417084,118.880585 
	C211.315262,112.901253 218.796295,114.801636 224.819275,126.594894 
M212.934204,127.705635 
	C210.332855,125.482475 207.646530,124.058281 204.139023,125.940872 
	C201.019730,127.615089 199.646072,129.934738 199.939468,133.552109 
	C200.221100,137.024246 199.579803,140.610596 200.172226,144.002121 
	C200.485580,145.796005 202.279251,148.237717 203.898575,148.716599 
	C207.792969,149.868271 211.240829,148.892609 213.184494,144.502518 
	C215.593597,139.061127 215.805389,133.825043 212.934204,127.705635 
z"/>
<path fill="#6A89C6" opacity="1.000000" stroke="none" 
	d="
M111.738480,156.917999 
	C108.444969,156.978226 105.620277,156.978226 102.397888,156.978226 
	C102.397888,137.835312 102.397888,118.807854 102.397888,99.389267 
	C105.543556,99.389267 108.925064,99.389267 112.779495,99.389267 
	C112.779495,105.641739 112.779495,112.053032 112.779495,118.984726 
	C114.179352,118.549850 115.069221,118.403847 115.836220,118.015289 
	C125.254814,113.244011 136.819809,116.571869 137.880997,131.074631 
	C138.496048,139.480423 137.992783,147.968048 137.992783,156.707764 
	C134.261978,156.707764 130.879639,156.707764 126.999969,156.707764 
	C126.999969,149.624237 127.066284,142.684738 126.956955,135.747971 
	C126.926704,133.828964 126.925644,131.536377 125.928284,130.095612 
	C124.529404,128.074829 122.122383,125.232117 120.305000,125.342766 
	C116.715523,125.561302 112.870827,127.064590 112.969017,132.185272 
	C113.096535,138.835632 113.049072,145.490921 112.963593,152.142639 
	C112.943352,153.717316 112.471436,155.286209 111.738480,156.917999 
z"/>
<path fill="#6A89C6" opacity="1.000000" stroke="none" 
	d="
M38.000000,51.952168 
	C37.678642,43.028481 39.669712,35.541740 48.234863,32.014454 
	C59.327377,27.446356 71.328064,30.645409 75.962997,41.024502 
	C80.028168,50.127731 77.798912,64.575745 68.708641,69.186020 
	C61.188629,72.999908 54.037266,73.189751 46.803280,69.279007 
	C40.187202,65.702324 37.665955,59.745197 38.000000,51.952168 
M51.447903,42.078110 
	C50.633732,46.019833 49.189415,49.956470 49.157566,53.904503 
	C49.113171,59.408470 53.224430,63.133484 57.949661,62.999374 
	C63.020855,62.855446 65.893845,59.411419 65.995552,53.327030 
	C66.023369,51.663040 65.976303,49.997787 66.004227,48.333797 
	C66.073090,44.230038 63.960217,41.663387 60.444122,39.813641 
	C57.047413,38.026695 54.477104,39.284748 51.447903,42.078110 
z"/>
<path fill="#6A89C6" opacity="1.000000" stroke="none" 
	d="
M143.000031,135.177979 
	C143.184326,123.603065 149.867691,116.776665 161.494064,116.020744 
	C171.524124,115.368599 180.961639,122.074333 182.162491,131.497177 
	C183.704086,143.593842 181.738968,150.692886 172.591339,155.725739 
	C165.784103,159.470963 158.475983,159.168518 151.568985,155.141891 
	C145.622955,151.675476 142.937668,146.419662 142.998276,139.637283 
	C143.010178,138.304581 143.000015,136.971664 143.000031,135.177979 
M166.383438,148.164520 
	C172.199341,144.023102 173.162506,132.555832 168.139984,127.622948 
	C165.184799,124.720512 161.916412,124.025146 158.356140,126.306892 
	C154.302689,128.904709 152.758194,136.809723 154.948380,143.023026 
	C156.713394,148.030182 159.175919,149.322128 166.383438,148.164520 
z"/>
<path fill="#6A89C6" opacity="1.000000" stroke="none" 
	d="
M207.999847,56.993134 
	C207.999847,48.197060 207.999847,39.899254 207.999847,30.048540 
	C211.814728,31.214825 214.906693,32.349796 218.095474,33.032299 
	C219.214828,33.271881 220.638504,32.546684 221.809647,32.012863 
	C229.220566,28.634914 235.718658,29.227959 240.052795,34.827225 
	C242.194214,37.593693 243.597137,41.547855 243.819885,45.060646 
	C244.354095,53.485531 243.992645,61.967209 243.992645,70.711273 
	C240.252045,70.711273 236.867264,70.711273 233.000000,70.711273 
	C233.000000,63.600605 233.066956,56.651642 232.956573,49.705498 
	C232.926041,47.784630 232.923553,45.482159 231.918121,44.049725 
	C230.506699,42.038883 228.087677,39.238323 226.246323,39.343529 
	C222.617157,39.550865 218.883041,41.165432 218.965698,46.254612 
	C219.095383,54.238049 219.000122,62.225140 219.000122,70.605011 
	C215.462189,70.605011 212.075928,70.605011 207.999847,70.605011 
	C207.999847,66.340469 207.999847,61.915936 207.999847,56.993134 
z"/>
<path fill="#6A89C6" opacity="1.000000" stroke="none" 
	d="
M15.000399,51.955460 
	C15.000400,55.087410 15.000400,57.725708 15.000400,60.999447 
	C20.378645,60.999447 25.466576,60.996830 30.554501,61.000099 
	C37.103390,61.004307 37.107327,61.006409 36.994171,67.656364 
	C36.977863,68.614723 36.902531,69.572083 36.843147,70.756531 
	C25.642382,70.756531 14.716925,70.756531 3.395046,70.756531 
	C3.395046,52.491314 3.395046,34.129864 3.395046,15.383095 
	C6.887214,15.383095 10.602067,15.383095 15.000399,15.383095 
	C15.000399,27.321751 15.000399,39.391773 15.000399,51.955460 
z"/>
<path fill="#B0C0E0" opacity="1.000000" stroke="none" 
	d="
M301.983032,50.161388 
	C302.142548,50.108295 302.302032,50.055202 302.856873,50.254112 
	C306.121918,53.145580 308.991577,55.785042 311.608673,58.682129 
	C310.257904,59.731194 309.159668,60.522629 307.894379,61.434464 
	C310.688141,63.057411 313.051849,64.390228 315.376007,65.788719 
	C320.940857,69.137199 326.487091,72.516571 332.064514,76.234787 
	C337.989899,82.821884 343.973785,88.983284 349.735718,95.345688 
	C351.177673,96.937950 351.905579,99.176834 352.598755,101.064156 
	C343.879120,96.213654 335.488464,91.475449 327.177368,86.601570 
	C321.381439,83.202637 315.694550,79.617737 309.935120,75.762115 
	C303.637543,69.168259 297.363831,62.928207 291.090118,56.688164 
	C294.136780,54.871456 297.183441,53.054745 300.775024,51.022243 
	C301.609375,50.661736 301.830414,50.446712 301.983032,50.161388 
z"/>
<path fill="#96ADD7" opacity="1.000000" stroke="none" 
	d="
M338.960480,159.116745 
	C327.895966,152.830353 316.828644,146.548935 305.768494,140.254898 
	C301.840637,138.019669 298.001343,135.616074 293.990173,133.543747 
	C290.559967,131.771545 288.870239,129.253464 288.975220,125.352959 
	C289.104553,120.546318 289.013458,115.733749 289.424225,110.508926 
	C293.498322,113.061607 297.165833,116.029099 300.907776,119.402359 
	C300.771729,122.194817 301.157623,123.839020 303.833984,125.096581 
	C308.736389,127.400070 313.298462,130.427780 318.008362,133.508545 
	C318.945312,135.344818 319.655548,137.039566 320.845642,138.270294 
	C325.997040,143.597488 331.374847,148.707535 336.467102,154.088837 
	C337.696442,155.387955 338.150116,157.421143 338.960480,159.116745 
z"/>
<path fill="#9DB2D9" opacity="1.000000" stroke="none" 
	d="
M339.119507,159.430298 
	C338.150116,157.421143 337.696442,155.387955 336.467102,154.088837 
	C331.374847,148.707535 325.997040,143.597488 320.845642,138.270294 
	C319.655548,137.039566 318.945312,135.344818 318.356201,133.533447 
	C319.309265,133.751953 319.846100,134.429810 320.542450,134.830170 
	C334.684937,142.961395 348.845703,151.060822 363.002777,159.166626 
	C364.170685,161.446381 364.935120,164.086868 366.586761,165.934097 
	C370.556976,170.374542 375.004547,174.384445 379.123138,178.698273 
	C380.315613,179.947281 381.045807,181.637634 381.996857,183.479523 
	C369.178528,176.556076 356.353302,169.275253 343.521240,162.006439 
	C342.127106,161.216736 340.693726,160.496368 339.119507,159.430298 
z"/>
<path fill="#E0E6F3" opacity="1.000000" stroke="none" 
	d="
M406.671997,15.016022 
	C409.077362,18.019884 410.920349,21.082821 413.272766,23.685253 
	C419.025818,30.049799 425.014343,36.201504 430.555237,42.727219 
	C427.720093,44.210468 425.237732,45.405388 422.420746,46.372993 
	C419.391968,43.152653 416.697815,40.159618 414.322754,37.026402 
	C415.351410,36.373108 416.061035,35.859993 416.914032,35.243183 
	C406.157135,28.804443 395.558502,22.460463 384.965820,15.743192 
	C382.347839,12.469523 379.723969,9.569146 377.100098,6.668765 
	C381.913971,3.216766 386.538361,2.303026 391.846588,6.230484 
	C396.345184,9.558919 401.485199,12.020443 406.671997,15.016022 
z"/>
<path fill="#6A89C6" opacity="1.000000" stroke="none" 
	d="
M188.000000,65.865433 
	C188.000000,54.093433 188.000000,42.807781 188.000000,31.263390 
	C191.674728,31.263390 194.949265,31.263390 198.612885,31.263390 
	C198.612885,44.194340 198.612885,57.246437 198.612885,70.650955 
	C195.372391,70.650955 191.986771,70.650955 188.256104,70.650955 
	C188.171936,69.238007 188.085968,67.794891 188.000000,65.865433 
z"/>
<path fill="#A9BBDE" opacity="1.000000" stroke="none" 
	d="
M290.777527,56.873024 
	C297.363831,62.928207 303.637543,69.168259 309.567871,75.708847 
	C306.651825,74.636322 304.079132,73.263275 300.833893,71.531265 
	C300.833893,75.542358 300.833893,78.768822 300.479736,81.989426 
	C298.518066,80.923378 296.863403,79.927254 295.314636,78.787292 
	C293.222961,77.247719 291.212616,75.597565 289.167389,73.994858 
	C289.599915,68.349205 290.032440,62.703548 290.777527,56.873024 
z"/>
<path fill="#A2B6DB" opacity="1.000000" stroke="none" 
	d="
M289.091064,74.458115 
	C291.212616,75.597565 293.222961,77.247719 295.314636,78.787292 
	C296.863403,79.927254 298.518066,80.923378 300.555908,82.452690 
	C300.935425,89.279694 300.884583,95.637581 300.491699,101.947945 
	C296.488708,99.265305 292.827667,96.630203 289.166656,93.995102 
	C289.116028,87.637192 289.065399,81.279274 289.091064,74.458115 
z"/>
<path fill="#9BB1D8" opacity="1.000000" stroke="none" 
	d="
M289.090973,94.456894 
	C292.827667,96.630203 296.488708,99.265305 300.567383,102.410477 
	C300.934509,108.279228 300.883911,113.637909 300.833313,118.996597 
	C297.165833,116.029099 293.498322,113.061607 289.499023,110.045761 
	C289.116577,104.971169 289.065918,99.944931 289.090973,94.456894 
z"/>
<path fill="#D0DAED" opacity="1.000000" stroke="none" 
	d="
M349.887177,22.955864 
	C353.999451,20.380997 358.111755,17.806131 362.900146,15.139644 
	C366.396149,17.739183 369.216034,20.430346 371.891968,23.442036 
	C367.177612,26.215191 362.607208,28.667820 357.892700,30.813051 
	C355.128082,27.989058 352.507629,25.472462 349.887177,22.955864 
z"/>
<path fill="#D8E0F0" opacity="1.000000" stroke="none" 
	d="
M372.035950,23.121502 
	C369.216034,20.430346 366.396149,17.739183 363.225525,15.000898 
	C367.420044,12.290076 371.965363,9.626378 376.805359,6.815724 
	C379.723969,9.569146 382.347839,12.469523 384.618591,15.796416 
	C380.188965,18.522453 376.112457,20.821974 372.035950,23.121502 
z"/>
<path fill="#C8D4EA" opacity="1.000000" stroke="none" 
	d="
M349.521973,22.977943 
	C352.507629,25.472462 355.128082,27.989058 357.760071,31.136658 
	C353.526398,34.218781 349.281219,36.669895 344.891388,38.812500 
	C342.482239,35.632328 340.217743,32.760662 337.953247,29.889004 
	C341.687744,27.592680 345.422241,25.296350 349.521973,22.977943 
z"/>
<path fill="#C2CFE7" opacity="1.000000" stroke="none" 
	d="
M337.586182,29.940090 
	C340.217743,32.760662 342.482239,35.632328 344.742859,39.133171 
	C340.837921,41.881851 336.936829,44.001350 332.891785,45.813114 
	C330.149506,42.633907 327.551147,39.762436 324.952789,36.890968 
	C329.041565,34.591042 333.130310,32.291115 337.586182,29.940090 
z"/>
<path fill="#BBC9E5" opacity="1.000000" stroke="none" 
	d="
M324.623779,37.031082 
	C327.551147,39.762436 330.149506,42.633907 332.742493,46.132950 
	C328.836823,48.880936 324.936493,51.001350 320.892212,52.813980 
	C318.149506,49.633839 315.550781,46.761482 312.952026,43.889130 
	C316.732941,41.649822 320.513855,39.410511 324.623779,37.031082 
z"/>
<path fill="#6A89C6" opacity="1.000000" stroke="none" 
	d="
M191.608505,13.739698 
	C195.830429,13.580978 199.258499,14.251105 199.997955,18.964273 
	C200.582642,22.691021 199.409088,25.512234 195.665573,26.664204 
	C192.108810,27.758703 188.982849,26.585791 187.263748,23.368183 
	C185.375717,19.834396 187.470642,15.428744 191.608505,13.739698 
z"/>
<path fill="#B4C4E2" opacity="1.000000" stroke="none" 
	d="
M312.623596,44.030949 
	C315.550781,46.761482 318.149506,49.633839 320.743347,53.131561 
	C317.779358,55.312790 314.820312,56.868645 311.861237,58.424503 
	C308.991577,55.785042 306.121918,53.145580 303.102722,50.197884 
	C306.067139,47.984028 309.181152,46.078400 312.623596,44.030949 
z"/>
<path fill="#B4C4E2" opacity="1.000000" stroke="none" 
	d="
M301.716431,50.124226 
	C301.830414,50.446712 301.609375,50.661736 301.098907,50.884232 
	C301.068512,50.670361 301.259186,50.378712 301.716431,50.124226 
z"/>
<path fill="#C0CDE7" opacity="1.000000" stroke="none" 
	d="
M451.043365,147.112976 
	C446.448761,149.807404 441.854156,152.501831 436.677307,155.160065 
	C433.716583,152.376694 431.338165,149.629547 429.098145,146.561752 
	C434.144470,143.454544 439.052307,140.667984 444.004639,138.231689 
	C446.380554,141.425629 448.711945,144.269318 451.043365,147.112976 
z"/>
<path fill="#C8D4EA" opacity="1.000000" stroke="none" 
	d="
M451.406647,147.057770 
	C448.711945,144.269318 446.380554,141.425629 444.155640,137.914581 
	C448.215057,135.039261 452.167969,132.831314 456.484833,130.768799 
	C459.580444,133.646835 462.312134,136.379471 465.043823,139.112106 
	C460.619202,141.742264 456.194550,144.372421 451.406647,147.057770 
z"/>
<path fill="#B8C7E4" opacity="1.000000" stroke="none" 
	d="
M428.959717,146.882401 
	C431.338165,149.629547 433.716583,152.376694 436.407715,155.378235 
	C432.050415,158.347305 427.380402,161.062012 422.308655,163.473297 
	C419.590973,160.407913 417.275055,157.645935 415.111603,154.568451 
	C419.829254,151.796082 424.394501,149.339233 428.959717,146.882401 
z"/>
<path fill="#ABBDDF" opacity="1.000000" stroke="none" 
	d="
M399.470581,177.019043 
	C396.440399,174.236053 393.771698,171.423813 391.447418,168.299377 
	C395.490051,165.977356 399.188293,163.967545 403.192780,162.103943 
	C406.014160,164.870880 408.529266,167.491577 411.044403,170.112289 
	C407.306976,172.404785 403.569519,174.697281 399.470581,177.019043 
z"/>
<path fill="#D0DAED" opacity="1.000000" stroke="none" 
	d="
M465.373291,138.967224 
	C462.312134,136.379471 459.580444,133.646835 456.742371,130.489716 
	C460.385986,128.029755 464.136017,125.994286 467.886017,123.958817 
	C470.840363,126.471924 473.794708,128.985031 476.896729,131.804977 
	C473.263824,134.348648 469.483276,136.585480 465.373291,138.967224 
z"/>
<path fill="#B1C2E1" opacity="1.000000" stroke="none" 
	d="
M411.407623,170.056702 
	C408.529266,167.491577 406.014160,164.870880 403.349548,161.783752 
	C407.119751,159.172867 411.039459,157.028412 414.959167,154.883972 
	C417.275055,157.645935 419.590973,160.407913 421.955322,163.501343 
	C418.592804,165.888916 415.181824,167.945007 411.407623,170.056702 
z"/>
<path fill="#000000" opacity="1.000000" stroke="none" 
	d="
M415.111603,154.568451 
	C411.039459,157.028412 407.119751,159.172867 403.043274,161.637527 
	C399.188293,163.967545 395.490051,165.977356 391.430969,167.950439 
	C391.070099,167.913712 391.048096,167.965973 391.026917,167.491776 
	C390.948273,158.676056 390.890839,150.334534 390.904053,141.529495 
	C390.996429,132.749130 391.018188,124.432274 391.404236,116.057114 
	C396.513763,113.276848 401.258972,110.554893 406.353699,107.809662 
	C411.172241,104.873291 415.641327,101.960205 420.475159,99.019501 
	C424.561493,96.943649 428.283020,94.895401 432.355164,92.832184 
	C436.817719,90.246353 440.929596,87.675491 445.371918,84.964874 
	C449.483124,82.587418 453.263916,80.349709 457.372345,77.971077 
	C460.148529,76.257248 462.597076,74.684341 465.045624,73.111450 
	C465.955597,72.875710 466.865570,72.639969 468.015930,72.341949 
	C468.015930,73.680695 468.015930,74.956123 468.091248,76.614822 
	C468.116821,81.025757 468.067078,85.053421 468.092041,89.538948 
	C468.117279,95.355232 468.067810,100.713661 468.092712,106.534294 
	C468.109406,112.342438 468.051758,117.688377 467.940063,123.496567 
	C464.136017,125.994286 460.385986,128.029755 456.378418,130.344299 
	C452.167969,132.831314 448.215057,135.039261 444.111145,137.564316 
	C439.052307,140.667984 434.144470,143.454544 429.098145,146.561752 
	C424.394501,149.339233 419.829254,151.796082 415.111603,154.568451 
z"/>
<path fill="#000000" opacity="1.000000" stroke="none" 
	d="
M422.755402,46.600304 
	C425.237732,45.405388 427.720093,44.210468 430.573456,43.080238 
	C441.179962,49.106071 451.415466,55.067226 462.206085,61.351700 
	C459.908844,62.476360 458.042847,63.389904 455.701782,64.766983 
	C452.851379,66.709221 450.476044,68.187912 447.804749,69.815765 
	C444.325226,71.937714 441.141602,73.910507 437.590515,75.936867 
	C433.150421,78.382393 429.077820,80.774361 424.649048,83.182312 
	C420.159363,85.782928 416.025879,88.367554 411.528931,90.975952 
	C406.855865,93.482742 402.546295,95.965752 397.957764,98.646088 
	C393.132721,101.189507 388.586639,103.535614 383.983337,105.648384 
	C383.742218,105.113060 383.473450,104.961723 383.029938,104.710876 
	C382.635376,104.362541 382.330780,104.264343 381.694702,104.017448 
	C371.860931,98.282898 362.358643,92.697044 352.608673,86.965584 
	C355.075134,85.478745 357.092926,84.262383 359.435242,82.905304 
	C364.521057,79.880760 369.282318,76.996918 374.407837,74.056534 
	C378.529266,71.704033 382.286407,69.408066 386.409729,67.056328 
	C390.552948,64.683609 394.329926,62.366657 398.472504,60.020935 
	C402.906769,57.698742 406.975433,55.405315 411.374268,52.967728 
	C415.388062,50.749142 419.071747,48.674721 422.755402,46.600304 
z"/>
<path fill="#E2E8F4" opacity="1.000000" stroke="none" 
	d="
M448.100677,69.666611 
	C450.476044,68.187912 452.851379,66.709221 455.552155,65.095703 
	C458.834900,67.473297 461.792236,69.985718 464.897583,72.804787 
	C462.597076,74.684341 460.148529,76.257248 457.223846,77.663155 
	C453.865356,74.886307 450.983032,72.276459 448.100677,69.666611 
z"/>
<path fill="#000000" opacity="1.000000" stroke="none" 
	d="
M300.907776,119.402359 
	C300.883911,113.637909 300.934509,108.279228 300.909393,102.458008 
	C300.884583,95.637581 300.935425,89.279694 300.910095,82.458542 
	C300.833893,78.768822 300.833893,75.542358 300.833893,71.531265 
	C304.079132,73.263275 306.651825,74.636322 309.591736,76.062653 
	C315.694550,79.617737 321.381439,83.202637 327.177368,86.601570 
	C335.488464,91.475449 343.879120,96.213654 352.751740,101.379532 
	C360.152832,105.649185 366.940887,109.736565 373.962463,113.373131 
	C377.701630,115.309700 379.643799,117.547272 379.102142,122.022957 
	C378.666321,125.624435 379.112213,129.332626 379.088715,133.456726 
	C379.062805,142.611664 379.115021,151.303345 379.167267,159.995010 
	C379.049194,162.581512 378.931122,165.168030 378.783356,168.405197 
	C373.450348,165.159668 368.574341,162.192245 363.350525,159.195724 
	C348.845703,151.060822 334.684937,142.961395 320.542450,134.830170 
	C319.846100,134.429810 319.309265,133.751953 318.350281,133.178406 
	C313.298462,130.427780 308.736389,127.400070 303.833984,125.096581 
	C301.157623,123.839020 300.771729,122.194817 300.907776,119.402359 
M358.750458,126.241791 
	C354.847107,124.122330 350.943787,122.002869 346.748199,119.242462 
	C344.277405,117.890419 341.806610,116.538376 339.169678,115.095428 
	C339.169678,117.363747 339.169678,119.179245 339.015228,121.818321 
	C339.066864,123.210396 339.118469,124.602463 339.017090,126.818031 
	C339.067932,128.209610 339.118744,129.601196 339.016479,131.858994 
	C339.480072,134.677536 337.545898,138.033127 341.448456,140.045639 
	C346.738312,142.773575 351.830353,145.885223 357.660339,149.131287 
	C361.442108,151.364899 365.223846,153.598511 369.669312,156.138214 
	C370.699005,156.645981 371.728668,157.153748 372.834198,157.698929 
	C372.834198,155.193680 372.834198,153.094376 372.980499,150.170090 
	C372.931610,148.778488 372.882721,147.386871 372.985046,145.281799 
	C373.028259,143.841202 373.071472,142.400604 373.015503,140.186310 
	C372.855286,138.151352 373.459747,135.008087 372.399963,134.276901 
	C368.231018,131.400558 363.538452,129.283157 358.750458,126.241791 
z"/>
<path fill="#ABBDDF" opacity="1.000000" stroke="none" 
	d="
M379.521301,160.003693 
	C379.115021,151.303345 379.062805,142.611664 379.425354,133.508026 
	C383.504547,136.061707 387.168976,139.027359 390.833405,141.993011 
	C390.890839,150.334534 390.948273,158.676056 391.052795,167.480316 
	C389.056122,166.451660 387.027893,164.938370 384.963776,163.475723 
	C383.290009,162.289688 381.573090,161.164536 379.521301,160.003693 
z"/>
<path fill="#000000" opacity="1.000000" stroke="none" 
	d="
M263.271729,69.000229 
	C267.662903,69.683685 272.220856,68.716942 275.053436,72.811607 
	C270.515259,78.409309 262.117249,78.553505 256.289429,72.462723 
	C258.640747,71.220871 260.742798,70.110672 263.271729,69.000229 
z"/>
<path fill="#000000" opacity="1.000000" stroke="none" 
	d="
M269.576782,47.906696 
	C263.461945,49.871540 260.331543,49.066723 260.171295,45.399120 
	C260.084351,43.409637 261.096222,40.065819 262.399048,39.617214 
	C264.543457,38.878811 267.769287,39.280788 269.735077,40.499310 
	C272.579285,42.262348 271.654602,45.198372 269.576782,47.906696 
z"/>
<path fill="#000000" opacity="1.000000" stroke="none" 
	d="
M153.585907,58.103287 
	C151.513748,52.420971 152.061127,47.366646 154.862549,42.355904 
	C156.913101,38.688202 160.095032,38.486214 163.310852,39.271748 
	C166.314301,40.005409 168.463333,41.937622 168.062637,45.724289 
	C167.749390,48.684551 167.817795,51.718044 168.040115,54.694839 
	C168.423599,59.829487 164.822052,61.658882 161.054962,62.837059 
	C157.435684,63.969006 155.217209,61.584492 153.585907,58.103287 
z"/>
<path fill="#000000" opacity="1.000000" stroke="none" 
	d="
M213.017700,128.105530 
	C215.805389,133.825043 215.593597,139.061127 213.184494,144.502518 
	C211.240829,148.892609 207.792969,149.868271 203.898575,148.716599 
	C202.279251,148.237717 200.485580,145.796005 200.172226,144.002121 
	C199.579803,140.610596 200.221100,137.024246 199.939468,133.552109 
	C199.646072,129.934738 201.019730,127.615089 204.139023,125.940872 
	C207.646530,124.058281 210.332855,125.482475 213.017700,128.105530 
z"/>
<path fill="#000000" opacity="1.000000" stroke="none" 
	d="
M51.722855,41.794533 
	C54.477104,39.284748 57.047413,38.026695 60.444122,39.813641 
	C63.960217,41.663387 66.073090,44.230038 66.004227,48.333797 
	C65.976303,49.997787 66.023369,51.663040 65.995552,53.327030 
	C65.893845,59.411419 63.020855,62.855446 57.949661,62.999374 
	C53.224430,63.133484 49.113171,59.408470 49.157566,53.904503 
	C49.189415,49.956470 50.633732,46.019833 51.722855,41.794533 
z"/>
<path fill="#000000" opacity="1.000000" stroke="none" 
	d="
M166.077759,148.433075 
	C159.175919,149.322128 156.713394,148.030182 154.948380,143.023026 
	C152.758194,136.809723 154.302689,128.904709 158.356140,126.306892 
	C161.916412,124.025146 165.184799,124.720512 168.139984,127.622948 
	C173.162506,132.555832 172.199341,144.023102 166.077759,148.433075 
z"/>
<path fill="#000000" opacity="1.000000" stroke="none" 
	d="
M311.608673,58.682129 
	C314.820312,56.868645 317.779358,55.312790 320.887268,53.439354 
	C324.936493,51.001350 328.836823,48.880936 332.886475,46.440681 
	C336.936829,44.001350 340.837921,41.881851 344.887512,39.441681 
	C349.281219,36.669895 353.526398,34.218781 357.904205,31.444056 
	C362.607208,28.667820 367.177612,26.215191 371.891968,23.442028 
	C376.112457,20.821974 380.188965,18.522453 384.612671,16.169708 
	C395.558502,22.460463 406.157135,28.804443 416.914032,35.243183 
	C416.061035,35.859993 415.351410,36.373108 413.971191,37.038685 
	C409.851685,39.423912 406.402771,41.656673 402.589966,43.940041 
	C398.152466,46.382549 394.078827,48.774448 389.653900,51.179283 
	C385.279236,53.608265 381.255920,56.024311 376.966980,58.653282 
	C372.879578,61.061279 369.057709,63.256348 364.956970,65.648163 
	C360.102844,68.526863 355.527618,71.208832 350.623199,74.030624 
	C346.819672,76.184334 343.345398,78.198204 340.591766,79.794357 
	C337.295044,78.286560 334.667938,77.085022 332.040863,75.883484 
	C326.487091,72.516571 320.940857,69.137199 315.376007,65.788719 
	C313.051849,64.390228 310.688141,63.057411 307.894379,61.434464 
	C309.159668,60.522629 310.257904,59.731194 311.608673,58.682129 
z"/>
<path fill="#B6C5E3" opacity="1.000000" stroke="none" 
	d="
M332.064514,76.234787 
	C334.667938,77.085022 337.295044,78.286560 340.591766,79.794357 
	C343.345398,78.198204 346.819672,76.184334 350.771759,74.336647 
	C353.869934,77.350555 356.490326,80.198273 359.110718,83.046005 
	C357.092926,84.262383 355.075134,85.478745 352.608673,86.965584 
	C362.358643,92.697044 371.860931,98.282898 381.832794,104.203819 
	C382.538055,104.750870 382.810547,104.891579 383.119873,104.961014 
	C383.473450,104.961723 383.742218,105.113060 384.007385,106.000275 
	C386.405701,109.762138 388.722809,112.938774 391.039917,116.115417 
	C391.018188,124.432274 390.996429,132.749130 390.904053,141.529495 
	C387.168976,139.027359 383.504547,136.061707 379.503479,133.044769 
	C379.112213,129.332626 378.666321,125.624435 379.102142,122.022957 
	C379.643799,117.547272 377.701630,115.309700 373.962463,113.373131 
	C366.940887,109.736565 360.152832,105.649185 353.114685,101.433899 
	C351.905579,99.176834 351.177673,96.937950 349.735718,95.345688 
	C343.973785,88.983284 337.989899,82.821884 332.064514,76.234787 
z"/>
<path fill="#DBE3F1" opacity="1.000000" stroke="none" 
	d="
M402.953888,43.889442 
	C406.402771,41.656673 409.851685,39.423912 413.652130,37.178867 
	C416.697815,40.159618 419.391968,43.152653 422.420746,46.372993 
	C419.071747,48.674721 415.388062,50.749142 411.223999,52.657593 
	C408.147003,49.624229 405.550446,46.756836 402.953888,43.889442 
z"/>
<path fill="#BFCCE6" opacity="1.000000" stroke="none" 
	d="
M391.404236,116.057114 
	C388.722809,112.938774 386.405701,109.762138 384.064575,106.233612 
	C388.586639,103.535614 393.132721,101.189507 398.303772,98.876312 
	C401.287231,101.883789 403.645691,104.858360 406.004181,107.832932 
	C401.258972,110.554893 396.513763,113.276848 391.404236,116.057114 
z"/>
<path fill="#C7D3E9" opacity="1.000000" stroke="none" 
	d="
M406.353699,107.809662 
	C403.645691,104.858360 401.287231,101.883789 398.582764,98.678993 
	C402.546295,95.965752 406.855865,93.482742 411.805359,91.167274 
	C415.000305,93.905586 417.555359,96.476349 420.110382,99.047112 
	C415.641327,101.960205 411.172241,104.873291 406.353699,107.809662 
z"/>
<path fill="#D5DEEF" opacity="1.000000" stroke="none" 
	d="
M425.005249,83.166321 
	C429.077820,80.774361 433.150421,78.382393 437.635803,76.287064 
	C440.379547,79.424011 442.710541,82.264320 445.041504,85.104630 
	C440.929596,87.675491 436.817719,90.246353 432.306549,92.499420 
	C429.606598,89.176529 427.305939,86.171425 425.005249,83.166321 
z"/>
<path fill="#CED8EC" opacity="1.000000" stroke="none" 
	d="
M424.649048,83.182312 
	C427.305939,86.171425 429.606598,89.176529 431.955933,92.514389 
	C428.283020,94.895401 424.561493,96.943649 420.475159,99.019501 
	C417.555359,96.476349 415.000305,93.905586 412.168854,91.143509 
	C416.025879,88.367554 420.159363,85.782928 424.649048,83.182312 
z"/>
<path fill="#DCE3F1" opacity="1.000000" stroke="none" 
	d="
M445.371918,84.964874 
	C442.710541,82.264320 440.379547,79.424011 438.003296,76.233505 
	C441.141602,73.910507 444.325226,71.937714 447.804749,69.815765 
	C450.983032,72.276459 453.865356,74.886307 456.896210,77.804077 
	C453.263916,80.349709 449.483124,82.587418 445.371918,84.964874 
z"/>
<path fill="#BFCCE6" opacity="1.000000" stroke="none" 
	d="
M359.435242,82.905296 
	C356.490326,80.198273 353.869934,77.350555 351.100983,74.196823 
	C355.527618,71.208832 360.102844,68.526863 365.297943,65.874092 
	C368.626434,68.639885 371.334991,71.376480 374.043579,74.113083 
	C369.282318,76.996918 364.521057,79.880760 359.435242,82.905296 
z"/>
<path fill="#D4DDEE" opacity="1.000000" stroke="none" 
	d="
M402.589966,43.940044 
	C405.550446,46.756836 408.147003,49.624229 410.893829,52.801758 
	C406.975433,55.405315 402.906769,57.698742 398.167084,59.871761 
	C394.999115,56.889687 392.502167,54.028019 390.005219,51.166351 
	C394.078827,48.774448 398.152466,46.382549 402.589966,43.940044 
z"/>
<path fill="#C7D3E9" opacity="1.000000" stroke="none" 
	d="
M374.407837,74.056534 
	C371.334991,71.376480 368.626434,68.639885 365.576843,65.677353 
	C369.057709,63.256348 372.879578,61.061279 377.307098,58.879177 
	C380.623047,61.632133 383.333282,64.372124 386.043518,67.112106 
	C382.286407,69.408066 378.529266,71.704033 374.407837,74.056534 
z"/>
<path fill="#CDD7EC" opacity="1.000000" stroke="none" 
	d="
M386.409729,67.056335 
	C383.333282,64.372124 380.623047,61.632133 377.572693,58.666252 
	C381.255920,56.024311 385.279236,53.608265 389.653900,51.179283 
	C392.502167,54.028019 394.999115,56.889687 397.801514,59.900528 
	C394.329926,62.366657 390.552948,64.683609 386.409729,67.056335 
z"/>
<path fill="#BFCCE6" opacity="1.000000" stroke="none" 
	d="
M383.029938,104.710876 
	C382.810547,104.891579 382.538055,104.750870 382.164246,104.352516 
	C382.330780,104.264343 382.635376,104.362541 383.029938,104.710876 
z"/>
<path fill="#BDCBE5" opacity="1.000000" stroke="none" 
	d="
M339.170074,125.994537 
	C339.118469,124.602463 339.066864,123.210396 339.446228,121.415070 
	C341.476166,122.066040 343.296295,122.894890 344.637695,124.211464 
	C352.646057,132.071640 360.515656,140.073074 368.508698,147.949097 
	C369.747864,149.170120 371.382446,149.989792 372.834198,150.995071 
	C372.834198,153.094376 372.834198,155.193680 372.834198,157.698929 
	C371.728668,157.153748 370.699005,156.645981 369.328674,155.631287 
	C368.516815,154.112335 368.277161,152.871979 367.538910,152.123276 
	C359.442230,143.912094 351.304596,135.739975 343.064056,127.673767 
	C342.121399,126.751030 340.484863,126.537109 339.170074,125.994537 
z"/>
<path fill="#C5D1E9" opacity="1.000000" stroke="none" 
	d="
M372.907349,150.582581 
	C371.382446,149.989792 369.747864,149.170120 368.508698,147.949097 
	C360.515656,140.073074 352.646057,132.071640 344.637695,124.211464 
	C343.296295,122.894890 341.476166,122.066040 339.523468,121.003281 
	C339.169678,119.179245 339.169678,117.363747 339.169678,115.095428 
	C341.806610,116.538376 344.277405,117.890419 346.918518,119.914230 
	C354.454681,128.285873 361.793243,136.012253 369.219299,143.653564 
	C370.194641,144.657181 371.617981,145.225388 372.833801,145.995270 
	C372.882721,147.386871 372.931610,148.778488 372.907349,150.582581 
z"/>
<path fill="#B6C5E3" opacity="1.000000" stroke="none" 
	d="
M339.093567,126.406281 
	C340.484863,126.537109 342.121399,126.751030 343.064056,127.673767 
	C351.304596,135.739975 359.442230,143.912094 367.538910,152.123276 
	C368.277161,152.871979 368.516815,154.112335 368.996826,155.478241 
	C365.223846,153.598511 361.442108,151.364899 357.324554,148.627869 
	C354.626892,145.217834 352.532959,142.027679 349.834503,139.477142 
	C346.545105,136.368042 342.747437,133.796692 339.169556,130.992767 
	C339.118744,129.601196 339.067932,128.209610 339.093567,126.406281 
z"/>
<path fill="#CDD7EC" opacity="1.000000" stroke="none" 
	d="
M372.909424,145.638535 
	C371.617981,145.225388 370.194641,144.657181 369.219299,143.653564 
	C361.793243,136.012253 354.454681,128.285873 347.064636,120.234695 
	C350.943787,122.002869 354.847107,124.122330 358.919739,126.914124 
	C363.764221,132.044312 368.439453,136.502167 373.114685,140.960007 
	C373.071472,142.400604 373.028259,143.841202 372.909424,145.638535 
z"/>
<path fill="#ADBEDF" opacity="1.000000" stroke="none" 
	d="
M339.093018,131.425873 
	C342.747437,133.796692 346.545105,136.368042 349.834503,139.477142 
	C352.532959,142.027679 354.626892,145.217834 356.998016,148.478363 
	C351.830353,145.885223 346.738312,142.773575 341.448456,140.045639 
	C337.545898,138.033127 339.480072,134.677536 339.093018,131.425873 
z"/>
<path fill="#D5DEEF" opacity="1.000000" stroke="none" 
	d="
M373.065094,140.573151 
	C368.439453,136.502167 363.764221,132.044312 359.064636,127.235245 
	C363.538452,129.283157 368.231018,131.400558 372.399963,134.276901 
	C373.459747,135.008087 372.855286,138.151352 373.065094,140.573151 
z"/>
</svg>